<mxfile host="Electron" modified="2024-10-14T14:55:14.238Z" agent="Mozilla/5.0 (Windows NT 10.0; Win64; x64) AppleWebKit/537.36 (KHTML, like Gecko) draw.io/24.2.5 Chrome/120.0.6099.109 Electron/28.1.0 Safari/537.36" etag="UL6XU3dCyF1sGRwffPR9" version="24.2.5" type="device">
  <diagram name="Page-1" id="oiOaI_0dRS__atQ8a5np">
    <mxGraphModel dx="2067" dy="621" grid="1" gridSize="10" guides="1" tooltips="1" connect="1" arrows="1" fold="1" page="1" pageScale="1" pageWidth="850" pageHeight="1100" math="0" shadow="0">
      <root>
        <mxCell id="0" />
        <mxCell id="1" parent="0" />
        <mxCell id="tuG-mleJZ4_QGVe2Ncl6-1" value="agents.py" style="rounded=0;whiteSpace=wrap;html=1;fillColor=#dae8fc;strokeColor=#6c8ebf;" parent="1" vertex="1">
          <mxGeometry x="230" y="240" width="120" height="60" as="geometry" />
        </mxCell>
        <mxCell id="tuG-mleJZ4_QGVe2Ncl6-2" value="Task.py" style="rounded=0;whiteSpace=wrap;html=1;fillColor=#dae8fc;strokeColor=#6c8ebf;" parent="1" vertex="1">
          <mxGeometry x="410" y="240" width="120" height="60" as="geometry" />
        </mxCell>
        <mxCell id="3qdrBuiTblNXdjQWvlDz-1" value="tools.py" style="rounded=0;whiteSpace=wrap;html=1;fillColor=#dae8fc;strokeColor=#6c8ebf;" vertex="1" parent="1">
          <mxGeometry x="580" y="240" width="120" height="60" as="geometry" />
        </mxCell>
        <mxCell id="3qdrBuiTblNXdjQWvlDz-2" value="main.py" style="rounded=0;whiteSpace=wrap;html=1;fillColor=#dae8fc;strokeColor=#6c8ebf;" vertex="1" parent="1">
          <mxGeometry x="60" y="240" width="120" height="60" as="geometry" />
        </mxCell>
        <mxCell id="3qdrBuiTblNXdjQWvlDz-21" style="edgeStyle=orthogonalEdgeStyle;rounded=0;orthogonalLoop=1;jettySize=auto;html=1;exitX=0.5;exitY=1;exitDx=0;exitDy=0;entryX=0.5;entryY=0;entryDx=0;entryDy=0;" edge="1" parent="1" source="3qdrBuiTblNXdjQWvlDz-3" target="3qdrBuiTblNXdjQWvlDz-6">
          <mxGeometry relative="1" as="geometry" />
        </mxCell>
        <mxCell id="3qdrBuiTblNXdjQWvlDz-3" value="./Image" style="rounded=0;whiteSpace=wrap;html=1;fillColor=#d5e8d4;strokeColor=#82b366;" vertex="1" parent="1">
          <mxGeometry x="-110" y="240" width="120" height="60" as="geometry" />
        </mxCell>
        <mxCell id="3qdrBuiTblNXdjQWvlDz-5" value=".env" style="rounded=0;whiteSpace=wrap;html=1;fillColor=#ffe6cc;strokeColor=#d79b00;" vertex="1" parent="1">
          <mxGeometry x="740" y="240" width="120" height="60" as="geometry" />
        </mxCell>
        <mxCell id="3qdrBuiTblNXdjQWvlDz-22" style="edgeStyle=orthogonalEdgeStyle;rounded=0;orthogonalLoop=1;jettySize=auto;html=1;exitX=0.5;exitY=1;exitDx=0;exitDy=0;" edge="1" parent="1" source="3qdrBuiTblNXdjQWvlDz-6" target="3qdrBuiTblNXdjQWvlDz-7">
          <mxGeometry relative="1" as="geometry" />
        </mxCell>
        <mxCell id="3qdrBuiTblNXdjQWvlDz-6" value="gema.png" style="rounded=0;whiteSpace=wrap;html=1;fillColor=#4D9900;strokeColor=#5C8048;" vertex="1" parent="1">
          <mxGeometry x="-110" y="310" width="120" height="60" as="geometry" />
        </mxCell>
        <mxCell id="3qdrBuiTblNXdjQWvlDz-7" value="pkn.png" style="rounded=0;whiteSpace=wrap;html=1;fillColor=#4D9900;strokeColor=#5C8048;" vertex="1" parent="1">
          <mxGeometry x="-110" y="380" width="120" height="60" as="geometry" />
        </mxCell>
        <mxCell id="3qdrBuiTblNXdjQWvlDz-18" style="edgeStyle=orthogonalEdgeStyle;rounded=0;orthogonalLoop=1;jettySize=auto;html=1;exitX=0.5;exitY=1;exitDx=0;exitDy=0;entryX=0.5;entryY=0;entryDx=0;entryDy=0;" edge="1" parent="1" source="3qdrBuiTblNXdjQWvlDz-8" target="3qdrBuiTblNXdjQWvlDz-9">
          <mxGeometry relative="1" as="geometry" />
        </mxCell>
        <mxCell id="3qdrBuiTblNXdjQWvlDz-8" value="./components" style="rounded=0;whiteSpace=wrap;html=1;fillColor=#d5e8d4;strokeColor=#82b366;" vertex="1" parent="1">
          <mxGeometry x="-400" y="240" width="120" height="60" as="geometry" />
        </mxCell>
        <mxCell id="3qdrBuiTblNXdjQWvlDz-19" style="edgeStyle=orthogonalEdgeStyle;rounded=0;orthogonalLoop=1;jettySize=auto;html=1;exitX=0;exitY=0.5;exitDx=0;exitDy=0;entryX=1;entryY=0.5;entryDx=0;entryDy=0;" edge="1" parent="1" source="3qdrBuiTblNXdjQWvlDz-9" target="3qdrBuiTblNXdjQWvlDz-11">
          <mxGeometry relative="1" as="geometry" />
        </mxCell>
        <mxCell id="3qdrBuiTblNXdjQWvlDz-20" style="edgeStyle=orthogonalEdgeStyle;rounded=0;orthogonalLoop=1;jettySize=auto;html=1;exitX=1;exitY=0.5;exitDx=0;exitDy=0;entryX=0;entryY=0.5;entryDx=0;entryDy=0;" edge="1" parent="1" source="3qdrBuiTblNXdjQWvlDz-9" target="3qdrBuiTblNXdjQWvlDz-10">
          <mxGeometry relative="1" as="geometry" />
        </mxCell>
        <mxCell id="3qdrBuiTblNXdjQWvlDz-9" value="Main.py" style="rounded=0;whiteSpace=wrap;html=1;fillColor=#dae8fc;strokeColor=#6c8ebf;" vertex="1" parent="1">
          <mxGeometry x="-400" y="330" width="120" height="60" as="geometry" />
        </mxCell>
        <mxCell id="3qdrBuiTblNXdjQWvlDz-10" value="Header.py" style="rounded=0;whiteSpace=wrap;html=1;fillColor=#dae8fc;strokeColor=#6c8ebf;" vertex="1" parent="1">
          <mxGeometry x="-250" y="330" width="120" height="60" as="geometry" />
        </mxCell>
        <mxCell id="3qdrBuiTblNXdjQWvlDz-15" style="edgeStyle=orthogonalEdgeStyle;rounded=0;orthogonalLoop=1;jettySize=auto;html=1;exitX=0.5;exitY=1;exitDx=0;exitDy=0;entryX=0.5;entryY=0;entryDx=0;entryDy=0;" edge="1" parent="1" source="3qdrBuiTblNXdjQWvlDz-11" target="3qdrBuiTblNXdjQWvlDz-12">
          <mxGeometry relative="1" as="geometry" />
        </mxCell>
        <mxCell id="3qdrBuiTblNXdjQWvlDz-11" value="./Isubcomponents" style="rounded=0;whiteSpace=wrap;html=1;fillColor=#d5e8d4;strokeColor=#82b366;" vertex="1" parent="1">
          <mxGeometry x="-550" y="330" width="120" height="60" as="geometry" />
        </mxCell>
        <mxCell id="3qdrBuiTblNXdjQWvlDz-16" style="edgeStyle=orthogonalEdgeStyle;rounded=0;orthogonalLoop=1;jettySize=auto;html=1;exitX=1;exitY=0.5;exitDx=0;exitDy=0;entryX=0;entryY=0.5;entryDx=0;entryDy=0;" edge="1" parent="1" source="3qdrBuiTblNXdjQWvlDz-12" target="3qdrBuiTblNXdjQWvlDz-13">
          <mxGeometry relative="1" as="geometry" />
        </mxCell>
        <mxCell id="3qdrBuiTblNXdjQWvlDz-17" style="edgeStyle=orthogonalEdgeStyle;rounded=0;orthogonalLoop=1;jettySize=auto;html=1;exitX=0;exitY=0.5;exitDx=0;exitDy=0;entryX=1;entryY=0.5;entryDx=0;entryDy=0;" edge="1" parent="1" source="3qdrBuiTblNXdjQWvlDz-12" target="3qdrBuiTblNXdjQWvlDz-14">
          <mxGeometry relative="1" as="geometry" />
        </mxCell>
        <mxCell id="3qdrBuiTblNXdjQWvlDz-12" value="Logo.py" style="rounded=0;whiteSpace=wrap;html=1;fillColor=#dae8fc;strokeColor=#6c8ebf;" vertex="1" parent="1">
          <mxGeometry x="-550" y="410" width="120" height="60" as="geometry" />
        </mxCell>
        <mxCell id="3qdrBuiTblNXdjQWvlDz-13" value="Option_Handler.py" style="rounded=0;whiteSpace=wrap;html=1;fillColor=#dae8fc;strokeColor=#6c8ebf;" vertex="1" parent="1">
          <mxGeometry x="-400" y="410" width="120" height="60" as="geometry" />
        </mxCell>
        <mxCell id="3qdrBuiTblNXdjQWvlDz-26" style="edgeStyle=orthogonalEdgeStyle;rounded=0;orthogonalLoop=1;jettySize=auto;html=1;exitX=0.5;exitY=1;exitDx=0;exitDy=0;entryX=0.5;entryY=0;entryDx=0;entryDy=0;" edge="1" parent="1" source="3qdrBuiTblNXdjQWvlDz-14" target="3qdrBuiTblNXdjQWvlDz-25">
          <mxGeometry relative="1" as="geometry" />
        </mxCell>
        <mxCell id="3qdrBuiTblNXdjQWvlDz-14" value="./Options" style="rounded=0;whiteSpace=wrap;html=1;fillColor=#d5e8d4;strokeColor=#82b366;" vertex="1" parent="1">
          <mxGeometry x="-700" y="410" width="120" height="60" as="geometry" />
        </mxCell>
        <mxCell id="3qdrBuiTblNXdjQWvlDz-25" value="base.py" style="rounded=0;whiteSpace=wrap;html=1;fillColor=#dae8fc;strokeColor=#6c8ebf;" vertex="1" parent="1">
          <mxGeometry x="-700" y="490" width="120" height="60" as="geometry" />
        </mxCell>
        <mxCell id="3qdrBuiTblNXdjQWvlDz-27" value="CLUSTER_PENYAKIT" style="rounded=0;whiteSpace=wrap;html=1;fillColor=#dae8fc;strokeColor=#6c8ebf;" vertex="1" parent="1">
          <mxGeometry x="-715" y="570" width="150" height="60" as="geometry" />
        </mxCell>
        <mxCell id="3qdrBuiTblNXdjQWvlDz-28" value="CLUSTER_PERAWATAN_TANAMAN" style="rounded=0;whiteSpace=wrap;html=1;fillColor=#dae8fc;strokeColor=#6c8ebf;" vertex="1" parent="1">
          <mxGeometry x="-762.5" y="650" width="245" height="60" as="geometry" />
        </mxCell>
        <mxCell id="3qdrBuiTblNXdjQWvlDz-29" value="CLUSTER_PASCA_PANEN" style="rounded=0;whiteSpace=wrap;html=1;fillColor=#dae8fc;strokeColor=#6c8ebf;" vertex="1" parent="1">
          <mxGeometry x="-762.5" y="730" width="245" height="60" as="geometry" />
        </mxCell>
        <mxCell id="3qdrBuiTblNXdjQWvlDz-30" value="Rubah semua menjadi option yang memanggil crew yang berbeda-beda" style="rounded=0;whiteSpace=wrap;html=1;fillColor=#dae8fc;strokeColor=#6c8ebf;" vertex="1" parent="1">
          <mxGeometry x="-490" y="600" width="120" height="60" as="geometry" />
        </mxCell>
      </root>
    </mxGraphModel>
  </diagram>
</mxfile>
